<?xml version="1.0" standalone="no"?>
<!DOCTYPE svg PUBLIC "-//W3C//DTD SVG 20010904//EN"
 "http://www.w3.org/TR/2001/REC-SVG-20010904/DTD/svg10.dtd">
<svg version="1.0" xmlns="http://www.w3.org/2000/svg"
 width="1459.000000pt" height="821.000000pt" viewBox="0 0 1459.000000 821.000000"
 preserveAspectRatio="xMidYMid meet">

<g transform="translate(0.000000,821.000000) scale(0.100000,-0.100000)"
fill="#000000" stroke="none">
<path d="M4447 8089 c-336 -59 -641 -233 -846 -484 -157 -191 -247 -379 -303
-626 l-23 -104 0 -3385 0 -3385 3335 -3 c2417 -2 3361 0 3430 8 617 73 1097
509 1246 1130 18 71 19 217 22 2840 3 3053 7 2840 -60 3049 -161 503 -588 871
-1116 962 -111 19 -184 19 -2845 18 -2642 -1 -2736 -1 -2840 -20z m2473 -1989
c374 -24 609 -113 814 -309 298 -286 379 -749 197 -1137 -66 -140 -141 -236
-279 -357 l-53 -46 53 -27 c132 -66 273 -185 348 -294 213 -311 238 -776 60
-1124 -162 -316 -472 -522 -910 -603 -86 -16 -171 -18 -885 -18 l-789 0 -13
25 c-10 20 -12 377 -10 1795 2 1714 3 1772 21 1820 44 115 121 201 222 247 38
17 75 24 164 29 201 10 889 9 1060 -1z m2235 -3025 c237 -62 391 -291 355
-529 -35 -236 -232 -406 -470 -406 -140 0 -244 45 -343 149 -184 193 -174 490
22 674 115 108 284 151 436 112z"/>
<path d="M6413 5451 c-72 -12 -133 -50 -163 -103 l-25 -43 0 -390 0 -390 300
-3 c187 -2 324 1 365 8 93 16 177 60 237 123 89 94 123 189 123 348 0 230
-104 379 -305 436 -58 17 -449 27 -532 14z"/>
<path d="M6393 3900 c-84 -17 -136 -63 -162 -139 -7 -23 -11 -170 -11 -466 0
-386 2 -434 16 -439 29 -11 720 -7 776 5 185 39 318 172 363 360 19 83 19 248
0 322 -31 120 -117 238 -213 294 -102 60 -143 66 -447 69 -154 2 -299 -1 -322
-6z"/>
</g>
</svg>
